{"title":"Rabbit Hole 2010 DVDSCREENER x264-Jucified (350MB)","uid":6025366,"size":367742444,"categoryP":"video","categoryS":"movies","magnet":"?xt=urn:btih:ae046ccce56945fe6a4953454f92712207b4b7bb&amp;dn=Rabbit+Hole+2010+DVDSCREENER+x264-Jucified+%28350MB%29&amp;tr=udp%3A%2F%2Ftracker.openbittorrent.com%3A80&amp;tr=udp%3A%2F%2Fopen.demonii.com%3A1337&amp;tr=udp%3A%2F%2Ftracker.coppersurfer.tk%3A6969&amp;tr=udp%3A%2F%2Fexodus.desync.com%3A6969","seeders":0,"leechers":0,"uploader":".BONE.","files":2,"time":1291908951,"description":"IMDB Link\n &lt;a href=&quot;\nhttp://www.imdb.com/title/tt0935075/&quot; rel=&quot;nofollow&quot; target=&quot;_NEW&quot;&gt;\nhttp://www.imdb.com/title/tt0935075/&lt;/a&gt;\n\nIMDB Rating\n\n8.5/10 (356 votes)\n\nRelease Date\n\n4 February 2011 (UK)\n\nGenre\n\nDrama\n\nCast\n\nNicole Kidman ... Becca\nAaron Eckhart ... Howie\nDianne Wiest ... Nat\nMiles Teller ... Jason\nTammy Blanchard ... Izzy\nSandra Oh ... Gaby\nGiancarlo Esposito ... Auggie\nJon Tenney ... Rick\nStephen Mailer ... Kevin\nMike Doyle ... Craig\nRoberta Wallach ... Rhonda\nPatricia Kalember ... Peg\nAli Marsh ... Donna\nYetta Gottesman ... Ana\nColin Mitchell ... Sam\nDeidre Goodwin ... Reema\nJulie Lauren ... Debbie\nRob Campbell ... Bob\n\nPlot\n\nBecca and Howie Corbett are a happily married couple whose perfect world is forever changed when their young son, Danny, is killed by a car. Becca, an executive-turned-stay-at-home mother, tries to redefine her existence in a surreal landscape of well-meaning family and friends. Painful, poignant, and often funny, Becca's experiences lead her to find solace in a mysterious relationship with a troubled young comic-book artist, Jason - the teenage driver of the car that killed Danny. Becca's fixation with Jason pulls her away from memories of Danny, while Howie immerses himself in the past, seeking refuge in outsiders who offer him something Becca is unable to give. The Corbetts, both adrift, make surprising and dangerous choices as they choose a path that will determine their fate.\n\nSource Used\n\nRabbit.Hole.2010.DVDSCREENER.XviD-FRAGMENT (Thanks)\n\nGeneral\n\nComplete name : Rabbit Hole 2010 DVDSCREENER x264-Jucified (350MB).mp4\nFormat : MPEG-4\nFormat profile : Base Media\nCodec ID : isom\nFile size : 351 MiB\nDuration : 1h 26mn\nOverall bit rate : 566 Kbps\n\nVideo\n\nFormat : AVC\nFormat/Info : Advanced Video Codec\nFormat profile : &lt;a class=&quot;__cf_email__&quot; href=&quot;/cdn-cgi/l/email-protection&quot; data-cfemail=&quot;327a5b555a727e061c03&quot;&gt;[email&amp;#160;protected]&lt;/a&gt;&lt;script cf-hash='f9e31' type=&quot;text/javascript&quot;&gt;\n/* &lt;![CDATA[ */!function(){try{var t=&quot;currentScript&quot;in document?document.currentScript:function(){for(var t=document.getElementsByTagName(&quot;script&quot;),e=t.length;e--;)if(t[e].getAttribute(&quot;cf-hash&quot;))return t[e]}();if(t&amp;&amp;t.previousSibling){var e,r,n,i,c=t.previousSibling,a=c.getAttribute(&quot;data-cfemail&quot;);if(a){for(e=&quot;&quot;,r=parseInt(a.substr(0,2),16),n=2;a.length-n;n+=2)i=parseInt(a.substr(n,2),16)^r,e+=String.fromCharCode(i);e=document.createTextNode(e),c.parentNode.replaceChild(e,c)}}}catch(u){}}();/* ]]&gt; */&lt;/script&gt;\nFormat settings, CABAC : Yes\nFormat settings, ReFrames : 2 frames\nCodec ID : avc1\nCodec ID/Info : Advanced Video Coding\nDuration : 1h 26mn\nBit rate mode : Variable\nBit rate : 531 Kbps\nMaximum bit rate : 1 887 Kbps\nWidth : 608 pixels\nHeight : 336 pixels\nDisplay aspect ratio : 16/9\nFrame rate mode : Constant\nFrame rate : 23.976 fps\nResolution : 24 bits\nColorimetry : 4:2:0\nScan type : Progressive\nBits/(Pixel*Frame) : 0.108\nStream size : 329 MiB (94%)\n\nAudio\n\nFormat : AAC\nFormat/Info : Advanced Audio Codec\nFormat version : Version 4\nFormat profile : LC\nFormat settings, SBR : Yes\nFormat settings, PS : No\nCodec ID : 40\nDuration : 1h 26mn\nBit rate mode : Variable\nBit rate : 32.0 Kbps\nMaximum bit rate : 41.2 Kbps\nChannel(s) : 2 channels\nChannel positions : L R\nSampling rate : 48.0 KHz\nResolution : 16 bits\nStream size : 19.8 MiB (6%)\n &lt;a href=&quot;\nhttp://img208.imageshack.us/img208/5397/vlcsnap00001u.png&quot; rel=&quot;nofollow&quot; target=&quot;_NEW&quot;&gt;\nhttp://img208.imageshack.us/img208/5397/vlcsnap00001u.png&lt;/a&gt;\n &lt;a href=&quot;\nhttp://img207.imageshack.us/img207/7449/vlcsnap00004i0.png&quot; rel=&quot;nofollow&quot; target=&quot;_NEW&quot;&gt;\nhttp://img207.imageshack.us/img207/7449/vlcsnap00004i0.png&lt;/a&gt;","torrent":{"xt":"urn:btih:ae046ccce56945fe6a4953454f92712207b4b7bb","amp;dn":"Rabbit+Hole+2010+DVDSCREENER+x264-Jucified+%28350MB%29","amp;tr":["udp%3A%2F%2Ftracker.openbittorrent.com%3A80","udp%3A%2F%2Fopen.demonii.com%3A1337","udp%3A%2F%2Ftracker.coppersurfer.tk%3A6969","udp%3A%2F%2Fexodus.desync.com%3A6969"],"infoHash":"ae046ccce56945fe6a4953454f92712207b4b7bb","infoHashBuffer":{"type":"Buffer","data":[174,4,108,204,229,105,69,254,106,73,83,69,79,146,113,34,7,180,183,187]},"announce":[],"urlList":[]}}